<?xml version="1.0" standalone="no"?>
<!DOCTYPE svg PUBLIC "-//W3C//DTD SVG 20010904//EN"
 "http://www.w3.org/TR/2001/REC-SVG-20010904/DTD/svg10.dtd">
<svg version="1.0" xmlns="http://www.w3.org/2000/svg"
 width="641.000000pt" height="1280.000000pt" viewBox="0 0 641.000000 1280.000000"
 preserveAspectRatio="xMidYMid meet">
<metadata>
Created by potrace 1.15, written by Peter Selinger 2001-2017
</metadata>
<g transform="translate(0.000000,1280.000000) scale(0.100000,-0.100000)"
fill="#000000" stroke="none">
<path d="M713 12785 c-47 -33 -84 -196 -84 -365 0 -181 45 -352 138 -520 170
-307 630 -1047 1140 -1834 107 -164 193 -300 191 -301 -2 -2 -50 -28 -108 -57
-114 -59 -150 -96 -150 -152 1 -83 73 -163 308 -339 78 -59 142 -110 142 -113
0 -2 -11 -27 -25 -53 -80 -159 -115 -310 -122 -523 -6 -186 9 -308 54 -453
125 -396 440 -723 829 -861 l81 -28 12 -91 c28 -212 127 -412 280 -566 53 -52
167 -143 192 -151 7 -2 -6 -53 -35 -138 -56 -168 -77 -288 -80 -457 l-3 -132
-99 -50 c-168 -85 -304 -208 -411 -373 -51 -79 -76 -133 -113 -248 -26 -79
-30 -85 -57 -88 -353 -32 -647 -180 -841 -425 -92 -115 -1774 -2689 -1829
-2797 -203 -403 -149 -888 139 -1246 383 -476 1090 -563 1588 -194 165 123
166 124 1112 1565 566 862 897 1376 929 1440 50 104 94 247 105 346 l6 58 55
11 c121 26 261 85 373 159 134 88 282 258 353 407 l39 79 141 1 c231 1 424 48
637 155 345 173 618 488 735 849 56 175 70 263 70 460 0 193 -14 282 -67 450
-162 510 -613 903 -1144 995 l-102 18 -7 81 c-21 238 -132 475 -302 639 l-49
47 27 83 c47 141 62 265 56 460 -5 192 -25 292 -91 453 -195 478 -650 806
-1153 831 l-122 6 -21 61 c-11 34 -42 148 -70 254 -27 107 -60 212 -72 235
-31 55 -79 87 -133 87 -45 0 -44 0 -214 -118 -60 -42 -77 -50 -87 -40 -6 7
-40 58 -74 113 l-63 100 10 180 c10 197 4 236 -39 255 -13 5 -99 23 -191 39
-92 16 -170 31 -173 34 -4 3 20 77 51 163 42 118 55 166 50 189 -9 46 -186
318 -215 332 -14 6 -99 19 -190 29 -91 9 -168 20 -172 23 -3 3 10 56 29 116
53 166 53 165 -50 330 -48 77 -98 151 -111 165 -29 31 -914 430 -954 430 -15
0 -37 -7 -49 -15z m3109 -4451 c47 -15 120 -71 138 -104 8 -16 0 -20 -80 -38
-120 -28 -227 -74 -323 -139 -44 -29 -83 -50 -88 -47 -5 3 -9 33 -9 67 0 190
184 322 362 261z m163 -370 c-20 -49 -77 -109 -130 -137 -51 -27 -184 -31
-229 -6 l-28 16 53 35 c69 45 140 81 205 102 49 16 136 35 142 30 2 -1 -4 -19
-13 -40z m720 -241 c97 -118 160 -271 172 -419 l6 -72 -39 -5 c-22 -3 -66 -9
-99 -12 -153 -17 -370 -90 -527 -178 -163 -91 -341 -249 -455 -404 l-61 -82
-48 32 c-147 97 -262 263 -314 450 -31 113 -43 104 133 104 227 1 407 42 599
138 219 109 407 272 526 457 20 31 40 57 44 57 4 1 32 -29 63 -66z m354 -1013
c322 -41 598 -239 741 -534 71 -145 94 -248 94 -416 0 -168 -23 -271 -94 -416
-118 -243 -319 -416 -575 -497 -85 -27 -248 -51 -304 -45 -35 3 -35 3 -52 83
-59 273 -221 510 -454 663 -95 63 -197 106 -324 138 -52 13 -97 27 -100 30
-10 10 -1 167 15 242 15 75 62 203 91 253 14 24 23 27 93 33 153 13 337 79
468 168 68 46 186 162 244 241 27 37 55 67 62 67 6 0 49 -5 95 -10z m-458 -81
c-59 -53 -144 -103 -227 -135 -66 -25 -68 -25 -49 -4 32 36 153 111 234 146
42 19 78 34 81 33 3 0 -15 -18 -39 -40z m-432 -1182 c194 -79 363 -245 449
-440 22 -50 55 -157 50 -163 -9 -9 -176 70 -250 119 -127 83 -227 188 -302
316 -34 58 -86 180 -86 201 0 16 48 5 139 -33z m-649 -49 c123 -486 498 -882
985 -1037 55 -18 102 -34 104 -36 7 -8 -77 -139 -126 -197 -99 -118 -267 -226
-412 -263 -35 -9 -65 -15 -66 -13 -2 2 -10 42 -19 90 -70 373 -311 687 -649
843 -65 30 -190 70 -279 89 l-27 6 28 79 c65 184 189 332 373 444 34 20 65 37
69 37 5 0 13 -19 19 -42z m-574 -1250 c51 -89 124 -177 207 -253 l71 -65 -20
-27 c-36 -49 -109 -86 -175 -91 -80 -6 -140 13 -195 61 -67 59 -88 106 -89
198 0 67 3 81 30 124 28 45 104 115 125 115 5 0 26 -28 46 -62z"/>
</g>
</svg>
