<?xml version="1.0" encoding="iso-8859-1"?>
<!-- Generator: Adobe Illustrator 19.0.0, SVG Export Plug-In . SVG Version: 6.00 Build 0)  -->
<svg version="1.1" id="Layer_1" xmlns="http://www.w3.org/2000/svg" xmlns:xlink="http://www.w3.org/1999/xlink" x="0px" y="0px"
	 viewBox="0 0 512 512" style="enable-background:new 0 0 512 512;" xml:space="preserve">
<g>
	<g>
		<path d="M271.515,139.636h-23.273v23.273v23.273h23.273c12.833,0,23.273-10.44,23.273-23.273S284.348,139.636,271.515,139.636z"/>
	</g>
</g>
<g>
	<g>
		<path d="M418.909,0H93.091C80.238,0,69.818,10.42,69.818,23.273v325.818c0,12.853,10.42,23.273,23.273,23.273h139.636v116.364
			C232.727,501.58,243.146,512,256,512c12.851,0,23.273-10.42,23.273-23.273V372.364h139.636c12.851,0,23.273-10.42,23.273-23.273
			V23.273C442.182,10.42,431.76,0,418.909,0z M271.515,232.727h-23.273V256c0,12.853-10.422,23.273-23.273,23.273
			c-12.854,0-23.273-10.42-23.273-23.273v-46.545v-46.545v-46.545c0-12.853,10.418-23.273,23.273-23.273h46.545
			c38.498,0,69.818,31.32,69.818,69.818S310.013,232.727,271.515,232.727z"/>
	</g>
</g>
<g>
</g>
<g>
</g>
<g>
</g>
<g>
</g>
<g>
</g>
<g>
</g>
<g>
</g>
<g>
</g>
<g>
</g>
<g>
</g>
<g>
</g>
<g>
</g>
<g>
</g>
<g>
</g>
<g>
</g>
</svg>
